/* XPM */
static char * back_xpm[] = {
"96 96 15 1",
" 	c #4A7BDE",
".	c #4A94DE",
"+	c #6A2929",
"@	c #C53939",
"#	c #FF6A4A",
"$	c #000000",
"%	c #AC7B41",
"&	c #7B4141",
"*	c #DE9473",
"=	c #39397B",
"-	c #BD9C39",
";	c #FFC594",
">	c #FFDE5A",
",	c #73A4C5",
"'	c #EEEEFF",
"                                    .........                                       .........   ",
"                                    .........                                       .........   ",
"                                    .........                                       .........   ",
"                                          ......                                          ......",
"                                          ......                                          ......",
"                                          ......                                          ......",
"                                             ...                                             ...",
"                                             ...                                             ...",
"                                             ...                                             ...",
"...                                             ...                                             ",
"...                                             ...                                             ",
"...                                             ...                                             ",
"...                                 ++++++++++++++++++++++++                                    ",
"...                                 ++++++++++++++++++++++++                                    ",
"...                                 ++++++++++++++++++++++++                                    ",
"......                           +++@@@##################@@@+++                                 ",
"......                           +++@@@##################@@@+++                                 ",
"......                           +++@@@##################@@@+++                                 ",
"   ......                        +++########################+++                                 ",
"   ......                        +++########################+++                                 ",
"   ......                        +++########################+++                                 ",
"   ......                     +++@@@########################@@@+++                              ",
"   ......                     +++@@@########################@@@+++                              ",
"   ......                     +++@@@########################@@@+++                              ",
"   .........                  +++@@@@@@##################@@@@@@+++                              ",
"   .........                  +++@@@@@@##################@@@@@@+++                              ",
"   .........                  +++@@@@@@##################@@@@@@+++                              ",
"   ............               $$$@@@@@@@@@@@@@@@@@@@@@@@@@@@@@@$$$                              ",
"   ............               $$$@@@@@@@@@@@@@@@@@@@@@@@@@@@@@@$$$                              ",
"   ............               $$$@@@@@@@@@@@@@@@@@@@@@@@@@@@@@@$$$                              ",
"   ............               $$$+++@@@@@@@@@@@@@@@@@@@@@@@@+++$$$                              ",
"   ............               $$$+++@@@@@@@@@@@@@@@@@@@@@@@@+++$$$                              ",
"   ............               $$$+++@@@@@@@@@@@@@@@@@@@@@@@@+++$$$                              ",
"   ...............         $$$%%%&&&+++@@@@@@$$$$$$@@@@@@+++&&&%%%$$$                           ",
"   ...............         $$$%%%&&&+++@@@@@@$$$$$$@@@@@@+++&&&%%%$$$                           ",
"   ...............         $$$%%%&&&+++@@@@@@$$$$$$@@@@@@+++&&&%%%$$$                           ",
"      ..................   $$$***$$$&&&++++++++++++++++++&&&$$$***$$$...                        ",
"      ..................   $$$***$$$&&&++++++++++++++++++&&&$$$***$$$...                        ",
"      ..................   $$$***$$$&&&++++++++++++++++++&&&$$$***$$$...                        ",
"      ........................$$$$$$&&&&&&%%%&&&&&&%%%&&&&&&$$$$$$............                  ",
"      ........................$$$$$$&&&&&&%%%&&&&&&%%%&&&&&&$$$$$$............                  ",
"      ........................$$$$$$&&&&&&%%%&&&&&&%%%&&&&&&$$$$$$............                  ",
"         ........................$$$$$$$$$&&&&&&&&&&&&$$$$$$$$$.....................            ",
"         ........................$$$$$$$$$&&&&&&&&&&&&$$$$$$$$$.....................            ",
"         ........................$$$$$$$$$&&&&&&&&&&&&$$$$$$$$$.....................            ",
"                  ............$$$===&&&---$$$$$$$$$$$$---&&&$$$$$$........................      ",
"                  ............$$$===&&&---$$$$$$$$$$$$---&&&$$$$$$........................      ",
"                  ............$$$===&&&---$$$$$$$$$$$$---&&&$$$$$$........................      ",
"                           $$$;;;===@@@---@@@@@@@@@@@@---@@@===;;;$$$               .........   ",
"                           $$$;;;===@@@---@@@@@@@@@@@@---@@@===;;;$$$               .........   ",
"                           $$$;;;===@@@---@@@@@@@@@@@@---@@@===;;;$$$               .........   ",
"                           $$$***&&&@@@&&&>>>>>>>>>>>>&&&@@@&&&***$$$                     ......",
"                           $$$***&&&@@@&&&>>>>>>>>>>>>&&&@@@&&&***$$$                     ......",
"                           $$$***&&&@@@&&&>>>>>>>>>>>>&&&@@@&&&***$$$                     ......",
"                        $$$===&&&$$$$$$--->>>>>>>>>>>>---$$$$$$&&&===$$$                     ...",
"                        $$$===&&&$$$$$$--->>>>>>>>>>>>---$$$$$$&&&===$$$                     ...",
"                        $$$===&&&$$$$$$--->>>>>>>>>>>>---$$$$$$&&&===$$$                     ...",
"...                     $$$=========,,,------------------,,,=========$$$                        ",
"...                     $$$=========,,,------------------,,,=========$$$                        ",
"...                     $$$=========,,,------------------,,,=========$$$                        ",
"...                     $$$======$$$$$$,,,---&&&&&&---,,,$$$$$$======$$$                        ",
"...                     $$$======$$$$$$,,,---&&&&&&---,,,$$$$$$======$$$                        ",
"...                     $$$======$$$$$$,,,---&&&&&&---,,,$$$$$$======$$$                        ",
"......               $$$=========$$$======$$$$$$$$$$$$======$$$=========$$$                     ",
"......               $$$=========$$$======$$$$$$$$$$$$======$$$=========$$$                     ",
"......               $$$=========$$$======$$$$$$$$$$$$======$$$=========$$$                     ",
"   ......            $$$============$$$$$$============$$$$$$============$$$                     ",
"   ......            $$$============$$$$$$============$$$$$$============$$$                     ",
"   ......            $$$============$$$$$$============$$$$$$============$$$                     ",
"   ......               $$$$$$$$$==============================$$$$$$$$$                        ",
"   ......               $$$$$$$$$==============================$$$$$$$$$                        ",
"   ......               $$$$$$$$$==============================$$$$$$$$$                        ",
"   .........               '''===================================='''                           ",
"   .........               '''===================================='''                           ",
"   .........               '''===================================='''                           ",
"   ............               '''$$$========================$$$'''                              ",
"   ............               '''$$$========================$$$'''                              ",
"   ............               '''$$$========================$$$'''                              ",
"   ............                  ''''''$$$============$$$''''''                                 ",
"   ............                  ''''''$$$============$$$''''''                                 ",
"   ............                  ''''''$$$============$$$''''''                                 ",
"   ...............                        ''''''''''''............                              ",
"   ...............                        ''''''''''''............                              ",
"   ...............                        ''''''''''''............                              ",
"      ..................                              ..................                        ",
"      ..................                              ..................                        ",
"      ..................                              ..................                        ",
"      ........................                        ........................                  ",
"      ........................                        ........................                  ",
"      ........................                        ........................                  ",
"         ...........................                     ...........................            ",
"         ...........................                     ...........................            ",
"         ...........................                     ...........................            ",
"                  ........................                        ........................      ",
"                  ........................                        ........................      ",
"                  ........................                        ........................      "};
