/* XPM */
static char * collectible2_xpm[] = {
"32 32 13 1",
" 	c #4878D8",
".	c #4890D8",
"+	c #313131",
"@	c #9C5200",
"#	c #C57B00",
"$	c #B47300",
"%	c #E69400",
"&	c #FFC531",
"*	c #F6B400",
"=	c #FFFF6A",
"-	c #FFFFFF",
";	c #F6F6B4",
">	c #EEC583",
" .........       .........      ",
"    ........        ........    ",
"          ...             ...   ",
"            ..              ..  ",
"             .               .  ",
"              .               . ",
"              . ++++++        . ",
"              ++@###$#++      ..",
".           ++@%%%&%%$$#+      .",
".          +@@%%&*==*%$$#+     .",
"..        +@%%&==-=;%*$$#+     .",
"...      +@%%&=--=;&&%$$$#+    .",
"...     +#%%&=--=;**&&%$$#+    .",
"....    +#%&====;%$*&&%$$#+    .",
"...... +#%%&=;;;$>>*&*%$$#+     ",
".......+#%%=&;*%$@@&&*%$@%+     ",
" ......+#%&*&&&$*@&&&%##@%+     ",
"    ...+*%&#*&&&&&&&%##@#+.    .",
"       +*#%#**%&&&&%###@%+..   .",
"       +%##%#**&%&*##%$%+  ..   ",
"        +*##%%*%%###%$%+    .   ",
"        +%#%%%%%%%%%%%+      .  ",
"         +%*#***###%++       .  ",
"          ++%####%++         .. ",
".           ++++++            . ",
".              .              . ",
"..             ..             . ",
"...            ...            . ",
"...            ...            . ",
"....           ....           . ",
"......          .....           ",
"........        .......         "};
