/* XPM */
static char * collectible_xpm[] = {
"96 96 13 1",
" 	c #4A7BDE",
".	c #4A94DE",
"+	c #313131",
"@	c #9C5200",
"#	c #C57B00",
"$	c #B47300",
"%	c #E69400",
"&	c #FFC531",
"*	c #F6B400",
"=	c #FFFF6A",
"-	c #FFFFFF",
";	c #F6F6B4",
">	c #EEC583",
"                                    .........                                       .........   ",
"                                    .........                                       .........   ",
"                                    .........                                       .........   ",
"                                          ......                                          ......",
"                                          ......                                          ......",
"                                          ......                                          ......",
"                                             ...                                             ...",
"                                             ...                                             ...",
"                                             ...                                             ...",
"...                                             ...                                             ",
"...                                             ...                                             ",
"...                                             ...                                             ",
"...                                             ...                                             ",
"...                                             ...                                             ",
"...                                             ...                                             ",
"......                                          ......                                          ",
"......                                          ......                                          ",
"......                                          ......                                          ",
"   ......                                          ......                                       ",
"   ......                                          ......                                       ",
"   ......                                          ......                                       ",
"   ......                                          ......                                       ",
"   ......                                          ......                                       ",
"   ......                                          ......                                       ",
"   .........                                 ++++++++++++++++++                                 ",
"   .........                                 ++++++++++++++++++                                 ",
"   .........                                 ++++++++++++++++++                                 ",
"   ............                        ++++++@@@#########$$$###++++++                           ",
"   ............                        ++++++@@@#########$$$###++++++                           ",
"   ............                        ++++++@@@#########$$$###++++++                           ",
"   ............                  ++++++@@@%%%%%%%%%&&&%%%%%%$$$$$$###+++                        ",
"   ............                  ++++++@@@%%%%%%%%%&&&%%%%%%$$$$$$###+++                        ",
"   ............                  ++++++@@@%%%%%%%%%&&&%%%%%%$$$$$$###+++                        ",
"   ...............            +++@@@@@@%%%%%%&&&***======***%%%$$$$$$###+++                     ",
"   ...............            +++@@@@@@%%%%%%&&&***======***%%%$$$$$$###+++                     ",
"   ...............            +++@@@@@@%%%%%%&&&***======***%%%$$$$$$###+++                     ",
"      ..................   +++@@@%%%%%%&&&======---===;;;%%%***$$$$$$###+++                     ",
"      ..................   +++@@@%%%%%%&&&======---===;;;%%%***$$$$$$###+++                     ",
"      ..................   +++@@@%%%%%%&&&======---===;;;%%%***$$$$$$###+++                     ",
"      ..................+++@@@%%%%%%&&&===------===;;;&&&&&&%%%$$$$$$$$$###+++                  ",
"      ..................+++@@@%%%%%%&&&===------===;;;&&&&&&%%%$$$$$$$$$###+++                  ",
"      ..................+++@@@%%%%%%&&&===------===;;;&&&&&&%%%$$$$$$$$$###+++                  ",
"         ............+++###%%%%%%&&&===------===;;;******&&&&&&%%%$$$$$$###+++......            ",
"         ............+++###%%%%%%&&&===------===;;;******&&&&&&%%%$$$$$$###+++......            ",
"         ............+++###%%%%%%&&&===------===;;;******&&&&&&%%%$$$$$$###+++......            ",
"                  ...+++###%%%&&&============;;;%%%$$$***&&&&&&%%%$$$$$$###+++............      ",
"                  ...+++###%%%&&&============;;;%%%$$$***&&&&&&%%%$$$$$$###+++............      ",
"                  ...+++###%%%&&&============;;;%%%$$$***&&&&&&%%%$$$$$$###+++............      ",
"                  +++###%%%%%%&&&===;;;;;;;;;$$$>>>>>>***&&&***%%%$$$$$$###+++      .........   ",
"                  +++###%%%%%%&&&===;;;;;;;;;$$$>>>>>>***&&&***%%%$$$$$$###+++      .........   ",
"                  +++###%%%%%%&&&===;;;;;;;;;$$$>>>>>>***&&&***%%%$$$$$$###+++      .........   ",
"                  +++###%%%%%%===&&&;;;***%%%$$$@@@@@@&&&&&&***%%%$$$@@@%%%+++            ......",
"                  +++###%%%%%%===&&&;;;***%%%$$$@@@@@@&&&&&&***%%%$$$@@@%%%+++            ......",
"                  +++###%%%%%%===&&&;;;***%%%$$$@@@@@@&&&&&&***%%%$$$@@@%%%+++            ......",
"                  +++###%%%&&&***&&&&&&&&&$$$***@@@&&&&&&&&&%%%######@@@%%%+++               ...",
"                  +++###%%%&&&***&&&&&&&&&$$$***@@@&&&&&&&&&%%%######@@@%%%+++               ...",
"                  +++###%%%&&&***&&&&&&&&&$$$***@@@&&&&&&&&&%%%######@@@%%%+++               ...",
"...               +++***%%%&&&###***&&&&&&&&&&&&&&&&&&&&&%%%######@@@###+++                     ",
"...               +++***%%%&&&###***&&&&&&&&&&&&&&&&&&&&&%%%######@@@###+++                     ",
"...               +++***%%%&&&###***&&&&&&&&&&&&&&&&&&&&&%%%######@@@###+++                     ",
"...               +++***###%%%###******%%%&&&&&&&&&&&&%%%#########@@@%%%+++                     ",
"...               +++***###%%%###******%%%&&&&&&&&&&&&%%%#########@@@%%%+++                     ",
"...               +++***###%%%###******%%%&&&&&&&&&&&&%%%#########@@@%%%+++                     ",
"......            +++%%%######%%%###******&&&%%%&&&***######%%%$$$%%%+++                        ",
"......            +++%%%######%%%###******&&&%%%&&&***######%%%$$$%%%+++                        ",
"......            +++%%%######%%%###******&&&%%%&&&***######%%%$$$%%%+++                        ",
"   ......            +++***######%%%%%%***%%%%%%#########%%%$$$%%%+++                           ",
"   ......            +++***######%%%%%%***%%%%%%#########%%%$$$%%%+++                           ",
"   ......            +++***######%%%%%%***%%%%%%#########%%%$$$%%%+++                           ",
"   ......            +++%%%###%%%%%%%%%%%%%%%%%%%%%%%%%%%%%%%%%+++                              ",
"   ......            +++%%%###%%%%%%%%%%%%%%%%%%%%%%%%%%%%%%%%%+++                              ",
"   ......            +++%%%###%%%%%%%%%%%%%%%%%%%%%%%%%%%%%%%%%+++                              ",
"   .........            +++%%%***###*********#########%%%++++++                                 ",
"   .........            +++%%%***###*********#########%%%++++++                                 ",
"   .........            +++%%%***###*********#########%%%++++++                                 ",
"   ............            ++++++%%%############%%%++++++......                                 ",
"   ............            ++++++%%%############%%%++++++......                                 ",
"   ............            ++++++%%%############%%%++++++......                                 ",
"   ............                  ++++++++++++++++++............                                 ",
"   ............                  ++++++++++++++++++............                                 ",
"   ............                  ++++++++++++++++++............                                 ",
"   ...............                                 ...............                              ",
"   ...............                                 ...............                              ",
"   ...............                                 ...............                              ",
"      ..................                              ..................                        ",
"      ..................                              ..................                        ",
"      ..................                              ..................                        ",
"      ........................                        ........................                  ",
"      ........................                        ........................                  ",
"      ........................                        ........................                  ",
"         ...........................                     ...........................            ",
"         ...........................                     ...........................            ",
"         ...........................                     ...........................            ",
"                  ........................                        ........................      ",
"                  ........................                        ........................      ",
"                  ........................                        ........................      "};
