/* XPM */
static char * enemy2_xpm[] = {
"96 96 16 1",
" 	c #4878D8",
".	c #4890D8",
"+	c #384860",
"@	c #78C0F0",
"#	c #480828",
"$	c #5098A8",
"%	c #901858",
"&	c #F8A0A0",
"*	c #E8E8F8",
"=	c #000000",
"-	c #E03060",
";	c #286878",
">	c #404040",
",	c #A8A8A8",
"'	c #987858",
")	c #B8A078",
"   ...........................                     ...........................                  ",
"   ...........................                     ...........................                  ",
"   ...........................                     ...........................                  ",
"            ........................                        ........................            ",
"            ........................                        ........................            ",
"            ........................                        ........................            ",
"                              .........                                       .........         ",
"                              .........                                       .........         ",
"                              .........                                       .........         ",
"                                    ......                                          ......      ",
"                                    ......                                          ......      ",
"                                    ......                                          ......      ",
"                                       ...                                             ...      ",
"                                       ...                                             ...      ",
"                                       ...                                             ...      ",
"                                          ...                                             ...   ",
"                                          ...                                             ...   ",
"                                          ...                                             ...   ",
"                                          ...                                             ...   ",
"                                          ...                                             ...   ",
"                                          ...                                             ...   ",
"                                          +++++++++                                       ......",
"                                          +++++++++                                       ......",
"                                          +++++++++                                       ......",
"...                                 ++++++@@@@@@@@@++++++                                    ...",
"...                                 ++++++@@@@@@@@@++++++                                    ...",
"...                                 ++++++@@@@@@@@@++++++                                    ...",
"...                           ######@@@$$$@@@@@@@@@$$$@@@######                              ...",
"...                           ######@@@$$$@@@@@@@@@$$$@@@######                              ...",
"...                           ######@@@$$$@@@@@@@@@$$$@@@######                              ...",
"......                     ###%%%%%%###$$$@@@@@@@@@$$$###%%%%%%###                           ...",
"......                     ###%%%%%%###$$$@@@@@@@@@$$$###%%%%%%###                           ...",
"......                     ###%%%%%%###$$$@@@@@@@@@$$$###%%%%%%###                           ...",
".........               ###&&&***%%%%%%###@@@@@@@@@###%%%%%%***&&&###                        ...",
".........               ###&&&***%%%%%%###@@@@@@@@@###%%%%%%***&&&###                        ...",
".........               ###&&&***%%%%%%###@@@@@@@@@###%%%%%%***&&&###                        ...",
".........               ===&&&&&&---%%%###@@@@@@@@@###%%%---&&&&&&===                        ...",
".........               ===&&&&&&---%%%###@@@@@@@@@###%%%---&&&&&&===                        ...",
".........               ===&&&&&&---%%%###@@@@@@@@@###%%%---&&&&&&===                        ...",
"............            ===%%%---------###@@@@@@@@@###---------%%%===                        ...",
"............            ===%%%---------###@@@@@@@@@###---------%%%===                        ...",
"............            ===%%%---------###@@@@@@@@@###---------%%%===                        ...",
"..................   ===###%%%------%%%###@@@@@@@@@###%%%------%%%###===                        ",
"..................   ===###%%%------%%%###@@@@@@@@@###%%%------%%%###===                        ",
"..................   ===###%%%------%%%###@@@@@@@@@###%%%------%%%###===                        ",
"..................+++$$$;;;###%%%######$$$@@@%%%@@@$$$######%%%###;;;$$$+++                     ",
"..................+++$$$;;;###%%%######$$$@@@%%%@@@$$$######%%%###;;;$$$+++                     ",
"..................+++$$$;;;###%%%######$$$@@@%%%@@@$$$######%%%###;;;$$$+++                     ",
"   ............+++@@@@@@@@@;;;;;;;;;$$$;;;%%%---%%%;;;$$$;;;;;;;;;@@@@@@@@@+++                  ",
"   ............+++@@@@@@@@@;;;;;;;;;$$$;;;%%%---%%%;;;$$$;;;;;;;;;@@@@@@@@@+++                  ",
"   ............+++@@@@@@@@@;;;;;;;;;$$$;;;%%%---%%%;;;$$$;;;;;;;;;@@@@@@@@@+++                  ",
"            ...===@@@@@@@@@@@@$$$$$$$$$$$$===%%%===$$$$$$$$$$$$@@@@@@@@@@@@===...            ...",
"            ...===@@@@@@@@@@@@$$$$$$$$$$$$===%%%===$$$$$$$$$$$$@@@@@@@@@@@@===...            ...",
"            ...===@@@@@@@@@@@@$$$$$$$$$$$$===%%%===$$$$$$$$$$$$@@@@@@@@@@@@===...            ...",
"                  ======@@@@@@@@@@@@$$$$$$$$$===$$$$$$$$$@@@@@@@@@@@@======.........         ...",
"                  ======@@@@@@@@@@@@$$$$$$$$$===$$$$$$$$$@@@@@@@@@@@@======.........         ...",
"                  ======@@@@@@@@@@@@$$$$$$$$$===$$$$$$$$$@@@@@@@@@@@@======.........         ...",
"                        ============@@@@@@@@@;;;@@@@@@@@@============            ......         ",
"                        ============@@@@@@@@@;;;@@@@@@@@@============            ......         ",
"                        ============@@@@@@@@@;;;@@@@@@@@@============            ......         ",
"                           ===>>>***======@@@$$$@@@======***>>>===                  ...         ",
"                           ===>>>***======@@@$$$@@@======***>>>===                  ...         ",
"                           ===>>>***======@@@$$$@@@======***>>>===                  ...         ",
"                           >>>===>>>===,,,=========,,,===>>>===>>>                     ...      ",
"                           >>>===>>>===,,,=========,,,===>>>===>>>                     ...      ",
"                           >>>===>>>===,,,=========,,,===>>>===>>>                     ...      ",
"                     >>>>>>'''>>>======>>>===@@@===>>>======>>>'''>>>>>>               ...      ",
"                     >>>>>>'''>>>======>>>===@@@===>>>======>>>'''>>>>>>               ...      ",
"                     >>>>>>'''>>>======>>>===@@@===>>>======>>>'''>>>>>>               ...      ",
"            >>>>>>>>>''''''>>>'''>>>'''===$$$@@@$$$==='''>>>'''>>>''''''>>>>>>>>>      ......   ",
"            >>>>>>>>>''''''>>>'''>>>'''===$$$@@@$$$==='''>>>'''>>>''''''>>>>>>>>>      ......   ",
"            >>>>>>>>>''''''>>>'''>>>'''===$$$@@@$$$==='''>>>'''>>>''''''>>>>>>>>>      ......   ",
"...         ===))))))>>>>>>'''==='''>>>===$$$@@@$$$===>>>'''==='''>>>>>>))))))===         ...   ",
"...         ===))))))>>>>>>'''==='''>>>===$$$@@@$$$===>>>'''==='''>>>>>>))))))===         ...   ",
"...         ===))))))>>>>>>'''==='''>>>===$$$@@@$$$===>>>'''==='''>>>>>>))))))===         ...   ",
"...            >>>>>>''''''===''')))===   +++@@@+++   ===)))'''===''''''>>>>>>            ...   ",
"...            >>>>>>''''''===''')))===   +++@@@+++   ===)))'''===''''''>>>>>>            ...   ",
"...            >>>>>>''''''===''')))===   +++@@@+++   ===)))'''===''''''>>>>>>            ...   ",
"......         ============))))))===      ===@@@===      ===))))))============            ...   ",
"......         ============))))))===      ===@@@===      ===))))))============            ...   ",
"......         ============))))))===      ===@@@===      ===))))))============            ...   ",
".........      ===)))))))))======         ===$$$===...      ======)))))))))===            ...   ",
".........      ===)))))))))======         ===$$$===...      ======)))))))))===            ...   ",
".........      ===)))))))))======         ===$$$===...      ======)))))))))===            ...   ",
".........         =========               ===$$$===...            =========               ...   ",
".........         =========               ===$$$===...            =========               ...   ",
".........         =========               ===$$$===...            =========               ...   ",
"............                                 ===.........                                 ...   ",
"............                                 ===.........                                 ...   ",
"............                                 ===.........                                 ...   ",
"..................                              ...............                                 ",
"..................                              ...............                                 ",
"..................                              ...............                                 ",
"........................                        .....................                           ",
"........................                        .....................                           ",
"........................                        .....................                           "};
