/* XPM */
static char * exit_open_xpm[] = {
"96 96 4 1",
" 	c #A4FFFF",
".	c #4ACDCD",
"+	c #4A7BDE",
"@	c #4A94DE",
"   ...      ...   ..................                        ..................   ...      ...   ",
"   ...      ...   ..................                        ..................   ...      ...   ",
"   ...      ...   ..................                        ..................   ...      ...   ",
"...............   ...++++++++++++...                        ...++++++++++++...   ...............",
"...............   ...++++++++++++...                        ...++++++++++++...   ...............",
"...............   ...++++++++++++...                        ...++++++++++++...   ...............",
"         ...   ...++++++++++++++++++...                  ...++++++++++++++++++...   ...         ",
"         ...   ...++++++++++++++++++...                  ...++++++++++++++++++...   ...         ",
"         ...   ...++++++++++++++++++...                  ...++++++++++++++++++...   ...         ",
"      ...   ...++++++++++++++++++...   ...            ...   ...++++++++++++++++++...   ...      ",
"      ...   ...++++++++++++++++++...   ...            ...   ...++++++++++++++++++...   ...      ",
"      ...   ...++++++++++++++++++...   ...            ...   ...++++++++++++++++++...   ...      ",
"......   ...++++++++++++++++++...   ...+++............+++...   ...++++++++++++++++++...   ......",
"......   ...++++++++++++++++++...   ...+++............+++...   ...++++++++++++++++++...   ......",
"......   ...++++++++++++++++++...   ...+++............+++...   ...++++++++++++++++++...   ......",
"      ...++++++++++++++++++...   ...++++++++++++@@@@@@++++++...   ...++++++++++++++++++...      ",
"      ...++++++++++++++++++...   ...++++++++++++@@@@@@++++++...   ...++++++++++++++++++...      ",
"      ...++++++++++++++++++...   ...++++++++++++@@@@@@++++++...   ...++++++++++++++++++...      ",
"......@@@+++++++++++++++...   ...++++++++++++++++++@@@@@@++++++...   ...++++++++++++++++++......",
"......@@@+++++++++++++++...   ...++++++++++++++++++@@@@@@++++++...   ...++++++++++++++++++......",
"......@@@+++++++++++++++...   ...++++++++++++++++++@@@@@@++++++...   ...++++++++++++++++++......",
"...@@@@@@++++++++++++...   ......++++++..................++++++......   ...++++++++++++++++++...",
"...@@@@@@++++++++++++...   ......++++++..................++++++......   ...++++++++++++++++++...",
"...@@@@@@++++++++++++...   ......++++++..................++++++......   ...++++++++++++++++++...",
"...@@@@@@@@@++++++...            ......                  ......            ...+++++++++++++++...",
"...@@@@@@@@@++++++...            ......                  ......            ...+++++++++++++++...",
"...@@@@@@@@@++++++...            ......                  ......            ...+++++++++++++++...",
"...@@@@@@@@@@@@...   ...   ...                                    ...   ...   ...++++++++++++...",
"...@@@@@@@@@@@@...   ...   ...                                    ...   ...   ...++++++++++++...",
"...@@@@@@@@@@@@...   ...   ...                                    ...   ...   ...++++++++++++...",
"...@@@@@@@@@...   ......                  ............                  ......   ...+++++++++...",
"...@@@@@@@@@...   ......                  ............                  ......   ...+++++++++...",
"...@@@@@@@@@...   ......                  ............                  ......   ...+++++++++...",
"......@@@...   ...++++++...         ......+++......@@@......         ...++++++...   ...+++......",
"......@@@...   ...++++++...         ......+++......@@@......         ...++++++...   ...+++......",
"......@@@...   ...++++++...         ......+++......@@@......         ...++++++...   ...+++......",
"      ...   ...@@@@@@@@@...      ...++++++...      ...@@@@@@...      ...+++++++++...   ...      ",
"      ...   ...@@@@@@@@@...      ...++++++...      ...@@@@@@...      ...+++++++++...   ...      ",
"      ...   ...@@@@@@@@@...      ...++++++...      ...@@@@@@...      ...+++++++++...   ...      ",
"         ...@@@@@@@@@...         ...+++...            ...@@@...         ...@@@++++++...         ",
"         ...@@@@@@@@@...         ...+++...            ...@@@...         ...@@@++++++...         ",
"         ...@@@@@@@@@...         ...+++...            ...@@@...         ...@@@++++++...         ",
"            ...@@@@@@...      .........      ......      .........      ...@@@@@@...            ",
"            ...@@@@@@...      .........      ......      .........      ...@@@@@@...            ",
"            ...@@@@@@...      .........      ......      .........      ...@@@@@@...            ",
"            ...+++@@@...                  ...++++++...                  ...@@@@@@...            ",
"            ...+++@@@...                  ...++++++...                  ...@@@@@@...            ",
"            ...+++@@@...                  ...++++++...                  ...@@@@@@...            ",
"            ...++++++...                  ...++++++...                  ...++++++...            ",
"            ...++++++...                  ...++++++...                  ...++++++...            ",
"            ...++++++...                  ...++++++...                  ...++++++...            ",
"            ...++++++...      .........      ......      .........      ...++++++...            ",
"            ...++++++...      .........      ......      .........      ...++++++...            ",
"            ...++++++...      .........      ......      .........      ...++++++...            ",
"         ...+++++++++...         ...+++...            ...+++...         ...+++++++++...         ",
"         ...+++++++++...         ...+++...            ...+++...         ...+++++++++...         ",
"         ...+++++++++...         ...+++...            ...+++...         ...+++++++++...         ",
"      ...   ...+++++++++...      ...++++++...      ...++++++...      ...+++++++++...   ...      ",
"      ...   ...+++++++++...      ...++++++...      ...++++++...      ...+++++++++...   ...      ",
"      ...   ...+++++++++...      ...++++++...      ...++++++...      ...+++++++++...   ...      ",
"......+++...   ...++++++...         ......+++......+++......         ...++++++...   ...+++......",
"......+++...   ...++++++...         ......+++......+++......         ...++++++...   ...+++......",
"......+++...   ...++++++...         ......+++......+++......         ...++++++...   ...+++......",
"...@@@++++++...   ......                  ............                  ......   ...+++++++++...",
"...@@@++++++...   ......                  ............                  ......   ...+++++++++...",
"...@@@++++++...   ......                  ............                  ......   ...+++++++++...",
"...@@@@@@++++++...   ...   ...                                    ...   ...   ...++++++++++++...",
"...@@@@@@++++++...   ...   ...                                    ...   ...   ...++++++++++++...",
"...@@@@@@++++++...   ...   ...                                    ...   ...   ...++++++++++++...",
"...@@@@@@+++++++++...            ......                  ......            ...+++++++++++++++...",
"...@@@@@@+++++++++...            ......                  ......            ...+++++++++++++++...",
"...@@@@@@+++++++++...            ......                  ......            ...+++++++++++++++...",
"...@@@@@@@@@+++++++++...   ......++++++..................@@@+++......   ...++++++++++++++++++...",
"...@@@@@@@@@+++++++++...   ......++++++..................@@@+++......   ...++++++++++++++++++...",
"...@@@@@@@@@+++++++++...   ......++++++..................@@@+++......   ...++++++++++++++++++...",
"......@@@@@@@@@+++++++++...   ...++++++++++++++++++@@@@@@@@@@@@...   ...++++++++++++++++++......",
"......@@@@@@@@@+++++++++...   ...++++++++++++++++++@@@@@@@@@@@@...   ...++++++++++++++++++......",
"......@@@@@@@@@+++++++++...   ...++++++++++++++++++@@@@@@@@@@@@...   ...++++++++++++++++++......",
"      ...@@@@@@++++++++++++...   ...+++++++++++++++@@@@@@@@@...   ...++++++++++++++++++...      ",
"      ...@@@@@@++++++++++++...   ...+++++++++++++++@@@@@@@@@...   ...++++++++++++++++++...      ",
"      ...@@@@@@++++++++++++...   ...+++++++++++++++@@@@@@@@@...   ...++++++++++++++++++...      ",
"......   ...@@@@@@++++++++++++...   ...+++............@@@...   ...++++++++++++++++++...   ......",
"......   ...@@@@@@++++++++++++...   ...+++............@@@...   ...++++++++++++++++++...   ......",
"......   ...@@@@@@++++++++++++...   ...+++............@@@...   ...++++++++++++++++++...   ......",
"      ...   ...@@@@@@@@@+++++++++...   ...            ...   ...@@@@@@@@@+++++++++...   ...      ",
"      ...   ...@@@@@@@@@+++++++++...   ...            ...   ...@@@@@@@@@+++++++++...   ...      ",
"      ...   ...@@@@@@@@@+++++++++...   ...            ...   ...@@@@@@@@@+++++++++...   ...      ",
"         ...   ...@@@@@@@@@@@@++++++...                  ...@@@@@@@@@@@@@@@@@@...   ...         ",
"         ...   ...@@@@@@@@@@@@++++++...                  ...@@@@@@@@@@@@@@@@@@...   ...         ",
"         ...   ...@@@@@@@@@@@@++++++...                  ...@@@@@@@@@@@@@@@@@@...   ...         ",
"...............   ...@@@@@@@@@@@@...                        ...@@@@@@@@@@@@...   ...............",
"...............   ...@@@@@@@@@@@@...                        ...@@@@@@@@@@@@...   ...............",
"...............   ...@@@@@@@@@@@@...                        ...@@@@@@@@@@@@...   ...............",
"   ...      ...   ..................                        ..................   ...      ...   ",
"   ...      ...   ..................                        ..................   ...      ...   ",
"   ...      ...   ..................                        ..................   ...      ...   "};
