/* XPM */
static char *af30df3d239541a894d6fe0000da6869tZOams84Di8kdj6d[] = {
/* columns rows colors chars-per-pixel */
"32 32 4 1 ",
"  c #4A7BDE",
". c #4A94DE",
"X c #4ACDCD",
"o c #A4FFFF",
/* pixels */
"oXooXoXXXXXXooooooooXXXXXXoXooXo",
"XXXXXoX    XooooooooX    XoXXXXX",
"oooXoX      XooooooX      XoXooo",
"ooXoX      XoXooooXoX      XoXoo",
"XXoX      XoX XXXX XoX      XoXX",
"ooX      XoX    ..  XoX      Xoo",
"XX.     XoX      ..  XoX      XX",
"X..    XoXX  XXXXXX  XXoX      X",
"X...  XooooXXooooooXXooooX     X",
"X....XoXoXooooooooooooXoXoX    X",
"X...XoXXooooooXXXXooooooXXoX   X",
"XX.XoX  XoooXX XX.XXoooX  XoX XX",
"ooXoX...XooX  XooX..XooX   XoXoo",
"oooX...XoooX XooooX.XoooX.  Xooo",
"ooooX..XooXXXooXXooXXXooX..Xoooo",
"ooooX .XooooooX  XooooooX..Xoooo",
"ooooX  XooooooX  XooooooX  Xoooo",
"ooooX  XooXXXooXXooXXXooX  Xoooo",
"oooX   XoooX XooooX XoooX   Xooo",
"ooXoX   XooX  XooX  XooX   XoXoo",
"XX XoX  XoooXX XX XXoooX  XoX XX",
"X.  XoXXooooooXXXXooooooXXoX   X",
"X..  XoXoXooooooooooooXoXoX    X",
"X..   XooooXXooooooXXooooX     X",
"X...   XoXX  XXXXXX. XXoX      X",
"XX...   XoX      ....XoX      XX",
"ooX..    XoX     ...XoX      Xoo",
"XXoX..    XoX XXXX.XoX      XoXX",
"ooXoX...   XoXooooXoX...   XoXoo",
"oooXoX....  XooooooX......XoXooo",
"XXXXXoX....XooooooooX....XoXXXXX",
"oXooXoXXXXXXooooooooXXXXXXoXooXo"
};
