/* XPM */
static char * exit_closed_xpm[] = {
"32 32 11 1",
" 	c #4A7BDE",
".	c #4A94DE",
"+	c #8B8B8B",
"@	c #4C7CDE",
"#	c #D1D1D1",
"$	c #4B7BDE",
"%	c #4B7BDD",
"&	c #A6B1D7",
"*	c #4F7DDE",
"=	c #858998",
"-	c #527EDE",
"            ...             ... ",
"              ..              ..",
"               .               .",
".               .               ",
".               .               ",
"..              ..              ",
" ..              ..             ",
" ..          ++++++             ",
" ...      @++######++$          ",
" ....    %&###########          ",
" ....   *#####++++#####$        ",
" .....  =###++ ++.++###+        ",
"  ......+##+  +##+..+##+        ",
"  .....+###+ +####+.+###+.      ",
"   ....+##+++##++##+++##+...    ",
"      .+######+  +######+.....  ",
"       +######+  +######+   ... ",
"       +##+++##++##+++##+     ..",
"       +###+ +####+ +###+      .",
".       +##+  +##+  +##+        ",
".       +###++ ++ ++###+        ",
"..      -#####++++#####$        ",
" ..       ############          ",
" ..        ++######++           ",
" ...         ++++++.            ",
" ....            ....           ",
" ....            ....           ",
" .....           .....          ",
"  ......          ......        ",
"  ........        ........      ",
"   .........       .........    ",
"      ........        ........  "};
