/* XPM */
static char * exit_closed2_xpm[] = {
"32 32 5 1",
" 	c #4878D8",
".	c #4890D8",
"+	c #8B8B8B",
"@	c #B1C1D1",
"#	c #858998",
" .........       .........      ",
"    ........        ........    ",
"          ...             ...   ",
"            ..              ..  ",
"             .               .  ",
"              .               . ",
"              .               . ",
"             ++++++           ..",
".          ++@@@@@@++          .",
".         @@@@@@@@@@@@         .",
"..       @@@@@++++@@@@@        .",
"...     #@@@++ ++.++@@@+       .",
"...     +@@+  +@@+. +@@+       .",
"....   +@@@+ +@@@@+.+@@@+      .",
"...... +@@+++@@++@@+++@@+       ",
".......+@@@@@@+ .+@@@@@@+       ",
" ......+@@@@@@+ .+@@@@@@+       ",
"    ...+@@+++@@++@@+++@@+..    .",
"       +@@@+.+@@@@+ +@@@+...   .",
"        +@@+..+@@+  +@@+   ..   ",
"        +@@@++ ++ ++@@@+    .   ",
"         @@@@@++++@@@@@      .  ",
"          @@@@@@@@@@@@       .  ",
"           ++@@@@@@++        .. ",
".            ++++++           . ",
".              .              . ",
"..             ..             . ",
"...            ...            . ",
"...            ...            . ",
"....           ....           . ",
"......          .....           ",
"........        .......         "};
