/* XPM */
static char * front_xpm[] = {
"96 96 13 1",
" 	c #4A7BDE",
".	c #4A94DE",
"+	c #6A2929",
"@	c #C53939",
"#	c #FF6A4A",
"$	c #000000",
"%	c #EEEEFF",
"&	c #AC7B41",
"*	c #B4B4D5",
"=	c #DE9473",
"-	c #39397B",
";	c #7B4141",
">	c #FFC594",
"                                    .........                                       .........   ",
"                                    .........                                       .........   ",
"                                    .........                                       .........   ",
"                                          ......                                          ......",
"                                          ......                                          ......",
"                                          ......                                          ......",
"                                             ...                                             ...",
"                                             ...                                             ...",
"                                             ...                                             ...",
"...                                             ...                                             ",
"...                                             ...                                             ",
"...                                             ...                                             ",
"...                                 ++++++++++++++++++++++++                                    ",
"...                                 ++++++++++++++++++++++++                                    ",
"...                                 ++++++++++++++++++++++++                                    ",
"......                           +++@@@##################@@@+++                                 ",
"......                           +++@@@##################@@@+++                                 ",
"......                           +++@@@##################@@@+++                                 ",
"   ......                        +++########################+++                                 ",
"   ......                        +++########################+++                                 ",
"   ......                        +++########################+++                                 ",
"   ......                     +++@@@########################@@@+++                              ",
"   ......                     +++@@@########################@@@+++                              ",
"   ......                     +++@@@########################@@@+++                              ",
"   .........                  $$$@@@@@@##################@@@@@@$$$                              ",
"   .........                  $$$@@@@@@##################@@@@@@$$$                              ",
"   .........                  $$$@@@@@@##################@@@@@@$$$                              ",
"   ............               $$$@@@@@@@@@@@@%%%%%%@@@@@@@@@@@@$$$                              ",
"   ............               $$$@@@@@@@@@@@@%%%%%%@@@@@@@@@@@@$$$                              ",
"   ............               $$$@@@@@@@@@@@@%%%%%%@@@@@@@@@@@@$$$                              ",
"   ............            $$$&&&+++***@@@***@@@@@@***@@@***+++&&&$$$                           ",
"   ............            $$$&&&+++***@@@***@@@@@@***@@@***+++&&&$$$                           ",
"   ............            $$$&&&+++***@@@***@@@@@@***@@@***+++&&&$$$                           ",
"   ...............         $$$===$$$---%%%%%%%%%%%%%%%%%%---$$$===$$$                           ",
"   ...............         $$$===$$$---%%%%%%%%%%%%%%%%%%---$$$===$$$                           ",
"   ...............         $$$===$$$---%%%%%%%%%%%%%%%%%%---$$$===$$$                           ",
"      ..................      $$$;;;===------------------===;;;$$$......                        ",
"      ..................      $$$;;;===------------------===;;;$$$......                        ",
"      ..................      $$$;;;===------------------===;;;$$$......                        ",
"      ........................$$$======>>>$$$>>>>>>$$$>>>======$$$............                  ",
"      ........................$$$======>>>$$$>>>>>>$$$>>>======$$$............                  ",
"      ........................$$$======>>>$$$>>>>>>$$$>>>======$$$............                  ",
"         ........................;;;======;;;>>>>>>;;;======;;;.....................            ",
"         ........................;;;======;;;>>>>>>;;;======;;;.....................            ",
"         ........................;;;======;;;>>>>>>;;;======;;;.....................            ",
"                  ............$$$---$$$;;;============;;;$$$---$$$........................      ",
"                  ............$$$---$$$;;;============;;;$$$---$$$........................      ",
"                  ............$$$---$$$;;;============;;;$$$---$$$........................      ",
"                           ;;;>>>---$$$$$$$$$$$$$$$$$$$$$$$$--->>>;;;               .........   ",
"                           ;;;>>>---$$$$$$$$$$$$$$$$$$$$$$$$--->>>;;;               .........   ",
"                           ;;;>>>---$$$$$$$$$$$$$$$$$$$$$$$$--->>>;;;               .........   ",
"                           ;;;===$$$---$$$------------$$$---$$$===;;;                     ......",
"                           ;;;===$$$---$$$------------$$$---$$$===;;;                     ......",
"                           ;;;===$$$---$$$------------$$$---$$$===;;;                     ......",
"                        %%%$$$;;;;;;$$$------------------$$$;;;;;;$$$%%%                     ...",
"                        %%%$$$;;;;;;$$$------------------$$$;;;;;;$$$%%%                     ...",
"                        %%%$$$;;;;;;$$$------------------$$$;;;;;;$$$%%%                     ...",
"...                     $$$$$$$$$$$$***------------------***$$$$$$$$$$$$                        ",
"...                     $$$$$$$$$$$$***------------------***$$$$$$$$$$$$                        ",
"...                     $$$$$$$$$$$$***------------------***$$$$$$$$$$$$                        ",
"...                  %%%$$$---$$$******------------------******$$$---$$$%%%                     ",
"...                  %%%$$$---$$$******------------------******$$$---$$$%%%                     ",
"...                  %%%$$$---$$$******------------------******$$$---$$$%%%                     ",
"......               %%%------$$$***$$$------------------$$$***$$$------%%%                     ",
"......               %%%------$$$***$$$------------------$$$***$$$------%%%                     ",
"......               %%%------$$$***$$$------------------$$$***$$$------%%%                     ",
"   ......            $$$------$$$$$$***$$$------------$$$***$$$$$$------$$$                     ",
"   ......            $$$------$$$$$$***$$$------------$$$***$$$$$$------$$$                     ",
"   ......            $$$------$$$$$$***$$$------------$$$***$$$$$$------$$$                     ",
"   ......               $$$---$$$$$$---$$$$$$$$$$$$$$$$$$---$$$$$$---$$$                        ",
"   ......               $$$---$$$$$$---$$$$$$$$$$$$$$$$$$---$$$$$$---$$$                        ",
"   ......               $$$---$$$$$$---$$$$$$$$$$$$$$$$$$---$$$$$$---$$$                        ",
"   .........               $$$$$$---------$$$$$$$$$$$$---------$$$$$$                           ",
"   .........               $$$$$$---------$$$$$$$$$$$$---------$$$$$$                           ",
"   .........               $$$$$$---------$$$$$$$$$$$$---------$$$$$$                           ",
"   ............               $$$$$$------------------------$$$$$$                              ",
"   ............               $$$$$$------------------------$$$$$$                              ",
"   ............               $$$$$$------------------------$$$$$$                              ",
"   ............                  $$$$$$$$$------------$$$$$$$$$                                 ",
"   ............                  $$$$$$$$$------------$$$$$$$$$                                 ",
"   ............                  $$$$$$$$$------------$$$$$$$$$                                 ",
"   ...............                        $$$$$$$$$$$$............                              ",
"   ...............                        $$$$$$$$$$$$............                              ",
"   ...............                        $$$$$$$$$$$$............                              ",
"      ..................                              ..................                        ",
"      ..................                              ..................                        ",
"      ..................                              ..................                        ",
"      ........................                        ........................                  ",
"      ........................                        ........................                  ",
"      ........................                        ........................                  ",
"         ...........................                     ...........................            ",
"         ...........................                     ...........................            ",
"         ...........................                     ...........................            ",
"                  ........................                        ........................      ",
"                  ........................                        ........................      ",
"                  ........................                        ........................      "};
