/* XPM */
static char *bddd5910fda7490fb733ee44b12992e8L2C7R2WaQP0QtOuB[] = {
/* columns rows colors chars-per-pixel */
"32 32 13 1 ",
"  c black",
". c #6A2929",
"X c #39397B",
"o c #7B4141",
"O c #C53939",
"+ c #AC7B41",
"@ c #FF6A4A",
"# c #DE9473",
"$ c #4A7BDE",
"% c #4A94DE",
"& c #FFC594",
"* c #B4B4D5",
"= c #EEEEFF",
/* pixels */
"$$$$$$$$$$$$%%%$$$$$$$$$$$$$%%%$",
"$$$$$$$$$$$$$$%%$$$$$$$$$$$$$$%%",
"$$$$$$$$$$$$$$$%$$$$$$$$$$$$$$$%",
"%$$$$$$$$$$$$$$$%$$$$$$$$$$$$$$$",
"%$$$$$$$$$$$........$$$$$$$$$$$$",
"%%$$$$$$$$$.O@@@@@@O.$$$$$$$$$$$",
"$%%$$$$$$$$.@@@@@@@@.$$$$$$$$$$$",
"$%%$$$$$$$.O@@@@@@@@O.$$$$$$$$$$",
"$%%%$$$$$$ OO@@@@@@OO $$$$$$$$$$",
"$%%%%$$$$$ OOOO==OOOO $$$$$$$$$$",
"$%%%%$$$$ +.*O*OO*O*.+ $$$$$$$$$",
"$%%%%%$$$ # X======X # $$$$$$$$$",
"$$%%%%%%$$ o#XXXXXX#o %%$$$$$$$$",
"$$%%%%%%%% ##& && &## %%%%$$$$$$",
"$$$%%%%%%%%o##o&&o##o%%%%%%%$$$$",
"$$$$$$%%%% X o####o X %%%%%%%%$$",
"$$$$$$$$$o&X        X&o$$$$$%%%$",
"$$$$$$$$$o# X XXXX X #o$$$$$$$%%",
"$$$$$$$$= oo XXXXXX oo =$$$$$$$%",
"%$$$$$$$    *XXXXXX*    $$$$$$$$",
"%$$$$$$= X **XXXXXX** X =$$$$$$$",
"%%$$$$$=XX * XXXXXX * XX=$$$$$$$",
"$%%$$$$ XX  * XXXX *  XX $$$$$$$",
"$%%$$$$$ X  X      X  X $$$$$$$$",
"$%%%$$$$$  XXX    XXX  $$$$$$$$$",
"$%%%%$$$$$  XXXXXXXX  $$$$$$$$$$",
"$%%%%$$$$$$   XXXX   $$$$$$$$$$$",
"$%%%%%$$$$$$$$    %%%%$$$$$$$$$$",
"$$%%%%%%$$$$$$$$$$%%%%%%$$$$$$$$",
"$$%%%%%%%%$$$$$$$$%%%%%%%%$$$$$$",
"$$$%%%%%%%%%$$$$$$$%%%%%%%%%$$$$",
"$$$$$$%%%%%%%%$$$$$$$$%%%%%%%%$$"
};
