/* XPM */
static char * left_xpm[] = {
"96 96 15 1",
" 	c #4A7BDE",
".	c #4A94DE",
"+	c #6A2929",
"@	c #C53939",
"#	c #FF6A4A",
"$	c #EEEEFF",
"%	c #000000",
"&	c #B4B4D5",
"*	c #39397B",
"=	c #7B4141",
"-	c #DE9473",
";	c #FFC594",
">	c #BD9C39",
",	c #FFDE5A",
"'	c #73A4C5",
"                                    .........                                       .........   ",
"                                    .........                                       .........   ",
"                                    .........                                       .........   ",
"                                          ......                                          ......",
"                                          ......                                          ......",
"                                          ......                                          ......",
"                                             ...                                             ...",
"                                             ...                                             ...",
"                                             ...                                             ...",
"...                                             ...                                             ",
"...                                             ...                                             ",
"...                                             ...                                             ",
"...                                       ++++++++++++++++++++++++                              ",
"...                                       ++++++++++++++++++++++++                              ",
"...                                       ++++++++++++++++++++++++                              ",
"......                                 +++@@@##################@@@+++                           ",
"......                                 +++@@@##################@@@+++                           ",
"......                                 +++@@@##################@@@+++                           ",
"   ......                           +++@@@########################+++                           ",
"   ......                           +++@@@########################+++                           ",
"   ......                           +++@@@########################+++                           ",
"   ......                        ++++++$$$########################@@@+++                        ",
"   ......                        ++++++$$$########################@@@+++                        ",
"   ......                        ++++++$$$########################@@@+++                        ",
"   .........                  %%%$$$+++$$$@@@##################@@@@@@+++                        ",
"   .........                  %%%$$$+++$$$@@@##################@@@@@@+++                        ",
"   .........                  %%%$$$+++$$$@@@##################@@@@@@+++                        ",
"   ............               %%%$$$@@@&&&@@@@@@@@@@@@@@@@@@@@@@@@@@@+++                        ",
"   ............               %%%$$$@@@&&&@@@@@@@@@@@@@@@@@@@@@@@@@@@+++                        ",
"   ............               %%%$$$@@@&&&@@@@@@@@@@@@@@@@@@@@@@@@@@@+++                        ",
"   ............            %%%%%%$$$&&&@@@@@@@@@@@@@@@@@@@@@@@@@@@+++%%%                        ",
"   ............            %%%%%%$$$&&&@@@@@@@@@@@@@@@@@@@@@@@@@@@+++%%%                        ",
"   ............            %%%%%%$$$&&&@@@@@@@@@@@@@@@@@@@@@@@@@@@+++%%%                        ",
"   ...............      %%%***%%%%%%&&&&&&&&&@@@@@@@@@@@@@@@++++++===%%%                        ",
"   ...............      %%%***%%%%%%&&&&&&&&&@@@@@@@@@@@@@@@++++++===%%%                        ",
"   ...............      %%%***%%%%%%&&&&&&&&&@@@@@@@@@@@@@@@++++++===%%%                        ",
"      ............%%%%%%*********%%%===***++++++++++++++++++=========%%%                        ",
"      ............%%%%%%*********%%%===***++++++++++++++++++=========%%%                        ",
"      ............%%%%%%*********%%%===***++++++++++++++++++=========%%%                        ",
"      .........%%%******************===------%%%------===;;;---===%%%.........                  ",
"      .........%%%******************===------%%%------===;;;---===%%%.........                  ",
"      .........%%%******************===------%%%------===;;;---===%%%.........                  ",
"         ......%%%******************%%%===;;;===;;;------;;;---%%%..................            ",
"         ......%%%******************%%%===;;;===;;;------;;;---%%%..................            ",
"         ......%%%******************%%%===;;;===;;;------;;;---%%%..................            ",
"            %%%%%%%%%*********%%%%%%%%%%%%===------------======>>>%%%.....................      ",
"            %%%%%%%%%*********%%%%%%%%%%%%===------------======>>>%%%.....................      ",
"            %%%%%%%%%*********%%%%%%%%%%%%===------------======>>>%%%.....................      ",
"            %%%%%%%%%&&&&&&%%%******%%%%%%%%%===******+++===>>>,,,,,,%%%            .........   ",
"            %%%%%%%%%&&&&&&%%%******%%%%%%%%%===******+++===>>>,,,,,,%%%            .........   ",
"            %%%%%%%%%&&&&&&%%%******%%%%%%%%%===******+++===>>>,,,,,,%%%            .........   ",
"            %%%%%%&&&%%%&&&&&&%%%%%%%%%***%%%;;;;;;******@@@>>>,,,===%%%                  ......",
"            %%%%%%&&&%%%&&&&&&%%%%%%%%%***%%%;;;;;;******@@@>>>,,,===%%%                  ......",
"            %%%%%%&&&%%%&&&&&&%%%%%%%%%***%%%;;;;;;******@@@>>>,,,===%%%                  ......",
"               %%%%%%&&&&&&&&&%%%%%%%%%***%%%------***%%%@@@+++===>>>%%%%%%                  ...",
"               %%%%%%&&&&&&&&&%%%%%%%%%***%%%------***%%%@@@+++===>>>%%%%%%                  ...",
"               %%%%%%&&&&&&&&&%%%%%%%%%***%%%------***%%%@@@+++===>>>%%%%%%                  ...",
"...               %%%%%%%%%%%%%%%%%%%%%***%%%===%%%%%%''''''%%%>>>%%%***%%%                     ",
"...               %%%%%%%%%%%%%%%%%%%%%***%%%===%%%%%%''''''%%%>>>%%%***%%%                     ",
"...               %%%%%%%%%%%%%%%%%%%%%***%%%===%%%%%%''''''%%%>>>%%%***%%%                     ",
"...                        ***%%%%%%*********%%%'''======'''%%%%%%******%%%$$$                  ",
"...                        ***%%%%%%*********%%%'''======'''%%%%%%******%%%$$$                  ",
"...                        ***%%%%%%*********%%%'''======'''%%%%%%******%%%$$$                  ",
"......                     %%%***************%%%***@@@***%%%************%%%$$$                  ",
"......                     %%%***************%%%***@@@***%%%************%%%$$$                  ",
"......                     %%%***************%%%***@@@***%%%************%%%$$$                  ",
"   ......                  %%%%%%***************%%%%%%%%%************%%%$$$                     ",
"   ......                  %%%%%%***************%%%%%%%%%************%%%$$$                     ",
"   ......                  %%%%%%***************%%%%%%%%%************%%%$$$                     ",
"   ......                     %%%%%%%%%%%%%%%%%%*********************$$$$$$                     ",
"   ......                     %%%%%%%%%%%%%%%%%%*********************$$$$$$                     ",
"   ......                     %%%%%%%%%%%%%%%%%%*********************$$$$$$                     ",
"   .........                  %%%***************%%%%%%************%%%$$$                        ",
"   .........                  %%%***************%%%%%%************%%%$$$                        ",
"   .........                  %%%***************%%%%%%************%%%$$$                        ",
"   ............                  $$$%%%***************%%%***%%%$$$$$$                           ",
"   ............                  $$$%%%***************%%%***%%%$$$$$$                           ",
"   ............                  $$$%%%***************%%%***%%%$$$$$$                           ",
"   ............                        $$$%%%******%%%%%%$$$...                                 ",
"   ............                        $$$%%%******%%%%%%$$$...                                 ",
"   ............                        $$$%%%******%%%%%%$$$...                                 ",
"   ...............                           $$$$$$...............                              ",
"   ...............                           $$$$$$...............                              ",
"   ...............                           $$$$$$...............                              ",
"      ..................                              ..................                        ",
"      ..................                              ..................                        ",
"      ..................                              ..................                        ",
"      ........................                        ........................                  ",
"      ........................                        ........................                  ",
"      ........................                        ........................                  ",
"         ...........................                     ...........................            ",
"         ...........................                     ...........................            ",
"         ...........................                     ...........................            ",
"                  ........................                        ........................      ",
"                  ........................                        ........................      ",
"                  ........................                        ........................      "};
