/* XPM */
static char *_1fc53f937024d12dc1d21e5458d5004gXE5BHDwCJc3I7C0[] = {
/* columns rows colors chars-per-pixel */
"32 32 15 1 ",
"  c black",
". c #6A2929",
"X c #39397B",
"o c #7B4141",
"O c #C53939",
"+ c #FF6A4A",
"@ c #BD9C39",
"# c #DE9473",
"$ c #FFDE5A",
"% c #4A7BDE",
"& c #4A94DE",
"* c #73A4C5",
"= c #FFC594",
"- c #B4B4D5",
"; c #EEEEFF",
/* pixels */
"%%%%%%%%%%%%&&&%%%%%%%%%%%%%&&&%",
"%%%%%%%%%%%%%%&&%%%%%%%%%%%%%%&&",
"%%%%%%%%%%%%%%%&%%%%%%%%%%%%%%%&",
"&%%%%%%%%%%%%%%%&%%%%%%%%%%%%%%%",
"&%%%%%%%%%%%%%........%%%%%%%%%%",
"&&%%%%%%%%%%%.O++++++O.%%%%%%%%%",
"%&&%%%%%%%%%.O++++++++.%%%%%%%%%",
"%&&%%%%%%%%..;++++++++O.%%%%%%%%",
"%&&&%%%%%% ;.;O++++++OO.%%%%%%%%",
"%&&&&%%%%% ;O-OOOOOOOOO.%%%%%%%%",
"%&&&&%%%%  ;-OOOOOOOOO. %%%%%%%%",
"%&&&&&%% X  ---OOOOO..o %%%%%%%%",
"%%&&&&  XXX oX......ooo %%%%%%%%",
"%%&&& XXXXXXo## ##o=#o &&&%%%%%%",
"%%%&& XXXXXX o=o=##=# &&&&&&%%%%",
"%%%%   XXX    o####oo@ &&&&&&&%%",
"%%%%   -- XX   oXX.o@$$ %%%%&&&%",
"%%%%  - --   X ==XXO@$o %%%%%%&&",
"%%%%%  ---   X ##X O.o@  %%%%%%&",
"&%%%%%       X o  ** @ X %%%%%%%",
"&%%%%%%%%X  XXX *oo*  XX ;%%%%%%",
"&&%%%%%%% XXXXX XOX XXXX ;%%%%%%",
"%&&%%%%%%  XXXXX   XXXX ;%%%%%%%",
"%&&%%%%%%%      XXXXXXX;;%%%%%%%",
"%&&&%%%%%% XXXXX  XXXX ;%%%%%%%%",
"%&&&&%%%%%%; XXXXX X ;;%%%%%%%%%",
"%&&&&%%%%%%%%; XX  ;&%%%%%%%%%%%",
"%&&&&&%%%%%%%%%;;&&&&&%%%%%%%%%%",
"%%&&&&&&%%%%%%%%%%&&&&&&%%%%%%%%",
"%%&&&&&&&&%%%%%%%%&&&&&&&&%%%%%%",
"%%%&&&&&&&&&%%%%%%%&&&&&&&&&%%%%",
"%%%%%%&&&&&&&&%%%%%%%%&&&&&&&&%%"
};
