/* XPM */
static char * stone_water_xpm[] = {
"96 96 11 1",
" 	c #4A7BDE",
".	c #3162B4",
"+	c #417BBD",
"@	c #4A94DE",
"#	c #94A4B4",
"$	c #7B7B83",
"%	c #5A5A73",
"&	c #CDDEEE",
"*	c #ACBDCD",
"=	c #F6F6FF",
"-	c #414A6A",
"                        ............+++++++++...........................            @@@@@@@@@   ",
"                        ............+++++++++...........................            @@@@@@@@@   ",
"                        ............+++++++++...........................            @@@@@@@@@   ",
"               ...........................++++++.................................         @@@@@@",
"               ...........................++++++.................................         @@@@@@",
"               ...........................++++++.................................         @@@@@@",
"         ....................................+++.......................................      @@@",
"         ....................................+++.......................................      @@@",
"         ....................................+++.......................................      @@@",
"@@@   ..........................................+++.......................................      ",
"@@@   ..........................................+++.......................................      ",
"@@@   ..........................................+++.......................................      ",
"@@@   ..........................................+++.......................................      ",
"@@@   ..........................................+++.......................................      ",
"@@@   ..........................................+++.......................................      ",
"@@@+++..........................................++++++.......................................   ",
"@@@+++..........................................++++++.......................................   ",
"@@@+++..........................................++++++.......................................   ",
"   ++++++..........................................++++++....................................   ",
"   ++++++..........................................++++++....................................   ",
"   ++++++..........................................++++++....................................   ",
"   ++++++..........................................++++++....................................   ",
"   ++++++..........................................++++++....................................   ",
"   ++++++..........................................++++++....................................   ",
"...+++++++++....................................###$$$$$$$$$....................................",
"...+++++++++....................................###$$$$$$$$$....................................",
"...+++++++++....................................###$$$$$$$$$....................................",
"...++++++++++++...........................%%%###&&&&&&&&&&&&%%%.................................",
"...++++++++++++...........................%%%###&&&&&&&&&&&&%%%.................................",
"...++++++++++++...........................%%%###&&&&&&&&&&&&%%%.................................",
"...++++++++++++........................%%%&&&&&&&&&&&&&&&&&&***%%%..............................",
"...++++++++++++........................%%%&&&&&&&&&&&&&&&&&&***%%%..............................",
"...++++++++++++........................%%%&&&&&&&&&&&&&&&&&&***%%%..............................",
"...+++++++++++++++...............***######&&&&&&&&&&&&&&&******$$$..............................",
"...+++++++++++++++...............***######&&&&&&&&&&&&&&&******$$$..............................",
"...+++++++++++++++...............***######&&&&&&&&&&&&&&&******$$$..............................",
"......++++++++++++++++++...&&&$$$***###&&&&&&&&&&&&&&&***&&&&&&###%%%+++........................",
"......++++++++++++++++++...&&&$$$***###&&&&&&&&&&&&&&&***&&&&&&###%%%+++........................",
"......++++++++++++++++++...&&&$$$***###&&&&&&&&&&&&&&&***&&&&&&###%%%+++........................",
"......++++++++++++++++++===%%%*********&&&&&&&&&******&&&&&&&&&***%%%===++++++..................",
"......++++++++++++++++++===%%%*********&&&&&&&&&******&&&&&&&&&***%%%===++++++..................",
"......++++++++++++++++++===%%%*********&&&&&&&&&******&&&&&&&&&***%%%===++++++..................",
".........+++++++++++++++&&&$$$*********###$$$###&&&&&&&&&&&&&&&$$$---%%%++++++++++++............",
".........+++++++++++++++&&&$$$*********###$$$###&&&&&&&&&&&&&&&$$$---%%%++++++++++++............",
".........+++++++++++++++&&&$$$*********###$$$###&&&&&&&&&&&&&&&$$$---%%%++++++++++++............",
"..................++++++%%%***&&&***###$$$$$$***&&&&&&&&&&&&$$$------%%%++++++++++++++++++......",
"..................++++++%%%***&&&***###$$$$$$***&&&&&&&&&&&&$$$------%%%++++++++++++++++++......",
"..................++++++%%%***&&&***###$$$$$$***&&&&&&&&&&&&$$$------%%%++++++++++++++++++......",
"........................&&&###&&&&&&&&&###%%%$$$***&&&***$$$---------&&&............+++++++++...",
"........................&&&###&&&&&&&&&###%%%$$$***&&&***$$$---------&&&............+++++++++...",
"........................&&&###&&&&&&&&&###%%%$$$***&&&***$$$---------&&&............+++++++++...",
"........................%%%***&&&&&&&&&%%%---$$$###&&&***---------%%%%%%..................++++++",
"........................%%%***&&&&&&&&&%%%---$$$###&&&***---------%%%%%%..................++++++",
"........................%%%***&&&&&&&&&%%%---$$$###&&&***---------%%%%%%..................++++++",
"........................===#########%%%------$$$###***###------%%%%%%===.....................+++",
"........................===#########%%%------$$$###***###------%%%%%%===.....................+++",
"........................===#########%%%------$$$###***###------%%%%%%===.....................+++",
"+++.....................===$$$%%%%%%%%%------$$$$$$###$$$---%%%%%%%%%===........................",
"+++.....................===$$$%%%%%%%%%------$$$$$$###$$$---%%%%%%%%%===........................",
"+++.....................===$$$%%%%%%%%%------$$$$$$###$$$---%%%%%%%%%===........................",
"+++........................&&&%%%%%%%%%------$$$$$$$$$%%%%%%---%%%&&&...........................",
"+++........................&&&%%%%%%%%%------$$$$$$$$$%%%%%%---%%%&&&...........................",
"+++........................&&&%%%%%%%%%------$$$$$$$$$%%%%%%---%%%&&&...........................",
"++++++.....................&&&===------%%%---$$$$$$%%%$$$---%%%&&&===...........................",
"++++++.....................&&&===------%%%---$$$$$$%%%$$$---%%%&&&===...........................",
"++++++.....................&&&===------%%%---$$$$$$%%%$$$---%%%&&&===...........................",
"...++++++.....................&&&===%%%%%%---$$$$$$%%%$$$---&&&===..............................",
"...++++++.....................&&&===%%%%%%---$$$$$$%%%$$$---&&&===..............................",
"...++++++.....................&&&===%%%%%%---$$$$$$%%%$$$---&&&===..............................",
"...++++++...........................======&&&%%%%%%&&&======....................................",
"...++++++...........................======&&&%%%%%%&&&======....................................",
"...++++++...........................======&&&%%%%%%&&&======....................................",
"   +++++++++.......................................+++++++++.................................   ",
"   +++++++++.......................................+++++++++.................................   ",
"   +++++++++.......................................+++++++++.................................   ",
"   ++++++++++++....................................++++++++++++..............................   ",
"   ++++++++++++....................................++++++++++++..............................   ",
"   ++++++++++++....................................++++++++++++..............................   ",
"   ++++++++++++....................................++++++++++++..............................   ",
"   ++++++++++++....................................++++++++++++..............................   ",
"   ++++++++++++....................................++++++++++++..............................   ",
"   @@@++++++++++++.................................+++++++++++++++........................      ",
"   @@@++++++++++++.................................+++++++++++++++........................      ",
"   @@@++++++++++++.................................+++++++++++++++........................      ",
"      ++++++++++++++++++..............................++++++++++++++++++..................      ",
"      ++++++++++++++++++..............................++++++++++++++++++..................      ",
"      ++++++++++++++++++..............................++++++++++++++++++..................      ",
"      @@@+++++++++++++++++++++........................++++++++++++++++++++++++.........         ",
"      @@@+++++++++++++++++++++........................++++++++++++++++++++++++.........         ",
"      @@@+++++++++++++++++++++........................++++++++++++++++++++++++.........         ",
"         @@@@@@+++++++++++++++++++++.....................++++++++++++++++++++++++@@@            ",
"         @@@@@@+++++++++++++++++++++.....................++++++++++++++++++++++++@@@            ",
"         @@@@@@+++++++++++++++++++++.....................++++++++++++++++++++++++@@@            ",
"                  @@@@@@++++++++++++++++++........................++++++@@@@@@@@@@@@@@@@@@      ",
"                  @@@@@@++++++++++++++++++........................++++++@@@@@@@@@@@@@@@@@@      ",
"                  @@@@@@++++++++++++++++++........................++++++@@@@@@@@@@@@@@@@@@      "};
