/* XPM */
static char * tilewater1_xpm[] = {
"96 96 2 1",
" 	c #4878D8",
".	c #4890D8",
"                                    .........                                       .........   ",
"                                    .........                                       .........   ",
"                                    .........                                       .........   ",
"                                          ......                                          ......",
"                                          ......                                          ......",
"                                          ......                                          ......",
"                                             ...                                             ...",
"                                             ...                                             ...",
"                                             ...                                             ...",
"...                                             ...                                             ",
"...                                             ...                                             ",
"...                                             ...                                             ",
"...                                             ...                                             ",
"...                                             ...                                             ",
"...                                             ...                                             ",
"......                                          ......                                          ",
"......                                          ......                                          ",
"......                                          ......                                          ",
"   ......                                          ......                                       ",
"   ......                                          ......                                       ",
"   ......                                          ......                                       ",
"   ......                                          ......                                       ",
"   ......                                          ......                                       ",
"   ......                                          ......                                       ",
"   .........                                       .........                                    ",
"   .........                                       .........                                    ",
"   .........                                       .........                                    ",
"   ............                                    ............                                 ",
"   ............                                    ............                                 ",
"   ............                                    ............                                 ",
"   ............                                    ............                                 ",
"   ............                                    ............                                 ",
"   ............                                    ............                                 ",
"   ...............                                 ...............                              ",
"   ...............                                 ...............                              ",
"   ...............                                 ...............                              ",
"      ..................                              ..................                        ",
"      ..................                              ..................                        ",
"      ..................                              ..................                        ",
"      ........................                        ........................                  ",
"      ........................                        ........................                  ",
"      ........................                        ........................                  ",
"         ...........................                     ...........................            ",
"         ...........................                     ...........................            ",
"         ...........................                     ...........................            ",
"                  ........................                        ........................      ",
"                  ........................                        ........................      ",
"                  ........................                        ........................      ",
"                                    .........                                       .........   ",
"                                    .........                                       .........   ",
"                                    .........                                       .........   ",
"                                          ......                                          ......",
"                                          ......                                          ......",
"                                          ......                                          ......",
"                                             ...                                             ...",
"                                             ...                                             ...",
"                                             ...                                             ...",
"...                                             ...                                             ",
"...                                             ...                                             ",
"...                                             ...                                             ",
"...                                             ...                                             ",
"...                                             ...                                             ",
"...                                             ...                                             ",
"......                                          ......                                          ",
"......                                          ......                                          ",
"......                                          ......                                          ",
"   ......                                          ......                                       ",
"   ......                                          ......                                       ",
"   ......                                          ......                                       ",
"   ......                                          ......                                       ",
"   ......                                          ......                                       ",
"   ......                                          ......                                       ",
"   .........                                       .........                                    ",
"   .........                                       .........                                    ",
"   .........                                       .........                                    ",
"   ............                                    ............                                 ",
"   ............                                    ............                                 ",
"   ............                                    ............                                 ",
"   ............                                    ............                                 ",
"   ............                                    ............                                 ",
"   ............                                    ............                                 ",
"   ...............                                 ...............                              ",
"   ...............                                 ...............                              ",
"   ...............                                 ...............                              ",
"      ..................                              ..................                        ",
"      ..................                              ..................                        ",
"      ..................                              ..................                        ",
"      ........................                        ........................                  ",
"      ........................                        ........................                  ",
"      ........................                        ........................                  ",
"         ...........................                     ...........................            ",
"         ...........................                     ...........................            ",
"         ...........................                     ...........................            ",
"                  ........................                        ........................      ",
"                  ........................                        ........................      ",
"                  ........................                        ........................      "};
