/* XPM */
static char * tile_water_xpm[] = {
"96 96 2 1",
" 	c #4A7BDE",
".	c #4A94DE",
"                                    .........                                       .........   ",
"                                    .........                                       .........   ",
"                                    .........                                       .........   ",
"                                          ......                                          ......",
"                                          ......                                          ......",
"                                          ......                                          ......",
"                                             ...                                             ...",
"                                             ...                                             ...",
"                                             ...                                             ...",
"...                                             ...                                             ",
"...                                             ...                                             ",
"...                                             ...                                             ",
"...                                             ...                                             ",
"...                                             ...                                             ",
"...                                             ...                                             ",
"......                                          ......                                          ",
"......                                          ......                                          ",
"......                                          ......                                          ",
"   ......                                          ......                                       ",
"   ......                                          ......                                       ",
"   ......                                          ......                                       ",
"   ......                                          ......                                       ",
"   ......                                          ......                                       ",
"   ......                                          ......                                       ",
"   .........                                       .........                                    ",
"   .........                                       .........                                    ",
"   .........                                       .........                                    ",
"   ............                                    ............                                 ",
"   ............                                    ............                                 ",
"   ............                                    ............                                 ",
"   ............                                    ............                                 ",
"   ............                                    ............                                 ",
"   ............                                    ............                                 ",
"   ...............                                 ...............                              ",
"   ...............                                 ...............                              ",
"   ...............                                 ...............                              ",
"      ..................                              ..................                        ",
"      ..................                              ..................                        ",
"      ..................                              ..................                        ",
"      ........................                        ........................                  ",
"      ........................                        ........................                  ",
"      ........................                        ........................                  ",
"         ...........................                     ...........................            ",
"         ...........................                     ...........................            ",
"         ...........................                     ...........................            ",
"                  ........................                        ........................      ",
"                  ........................                        ........................      ",
"                  ........................                        ........................      ",
"                                    .........                                       .........   ",
"                                    .........                                       .........   ",
"                                    .........                                       .........   ",
"                                          ......                                          ......",
"                                          ......                                          ......",
"                                          ......                                          ......",
"                                             ...                                             ...",
"                                             ...                                             ...",
"                                             ...                                             ...",
"...                                             ...                                             ",
"...                                             ...                                             ",
"...                                             ...                                             ",
"...                                             ...                                             ",
"...                                             ...                                             ",
"...                                             ...                                             ",
"......                                          ......                                          ",
"......                                          ......                                          ",
"......                                          ......                                          ",
"   ......                                          ......                                       ",
"   ......                                          ......                                       ",
"   ......                                          ......                                       ",
"   ......                                          ......                                       ",
"   ......                                          ......                                       ",
"   ......                                          ......                                       ",
"   .........                                       .........                                    ",
"   .........                                       .........                                    ",
"   .........                                       .........                                    ",
"   ............                                    ............                                 ",
"   ............                                    ............                                 ",
"   ............                                    ............                                 ",
"   ............                                    ............                                 ",
"   ............                                    ............                                 ",
"   ............                                    ............                                 ",
"   ...............                                 ...............                              ",
"   ...............                                 ...............                              ",
"   ...............                                 ...............                              ",
"      ..................                              ..................                        ",
"      ..................                              ..................                        ",
"      ..................                              ..................                        ",
"      ........................                        ........................                  ",
"      ........................                        ........................                  ",
"      ........................                        ........................                  ",
"         ...........................                     ...........................            ",
"         ...........................                     ...........................            ",
"         ...........................                     ...........................            ",
"                  ........................                        ........................      ",
"                  ........................                        ........................      ",
"                  ........................                        ........................      "};
