/* XPM */
static char *back1731862167[] = {
/* columns rows colors chars-per-pixel */
"32 32 15 1 ",
"  c black",
". c #6A2929",
"X c #39397B",
"o c #7B4141",
"O c #C53939",
"+ c #AC7B41",
"@ c #FF6A4A",
"# c #BD9C39",
"$ c #DE9473",
"% c #FFDE5A",
"& c #4A7BDE",
"* c #4A94DE",
"= c #73A4C5",
"- c #FFC594",
"; c #EEEEFF",
/* pixels */
"&&&&&&&&&&&&***&&&&&&&&&&&&&***&",
"&&&&&&&&&&&&&&**&&&&&&&&&&&&&&**",
"&&&&&&&&&&&&&&&*&&&&&&&&&&&&&&&*",
"*&&&&&&&&&&&&&&&*&&&&&&&&&&&&&&&",
"*&&&&&&&&&&&........&&&&&&&&&&&&",
"**&&&&&&&&&.O@@@@@@O.&&&&&&&&&&&",
"&**&&&&&&&&.@@@@@@@@.&&&&&&&&&&&",
"&**&&&&&&&.O@@@@@@@@O.&&&&&&&&&&",
"&***&&&&&&.OO@@@@@@OO.&&&&&&&&&&",
"&****&&&&& OOOOOOOOOO &&&&&&&&&&",
"&****&&&&& .OOOOOOOO. &&&&&&&&&&",
"&*****&&& +o.OO  OO.o+ &&&&&&&&&",
"&&******& $ o......o $ *&&&&&&&&",
"&&********  oo+oo+oo  ****&&&&&&",
"&&&********   oooo   *******&&&&",
"&&&&&&**** Xo#    #o  ********&&",
"&&&&&&&&& -XO#OOOO#OX- &&&&&***&",
"&&&&&&&&& $oOo%%%%oOo$ &&&&&&&**",
"&&&&&&&& Xo  #%%%%#  oX &&&&&&&*",
"*&&&&&&& XXX=######=XXX &&&&&&&&",
"*&&&&&&& XX  =#oo#=  XX &&&&&&&&",
"**&&&&& XXX XX    XX XXX &&&&&&&",
"&**&&&& XXXX  XXXX  XXXX &&&&&&&",
"&**&&&&&   XXXXXXXXXX   &&&&&&&&",
"&***&&&&&;XXXXXXXXXXXX;&&&&&&&&&",
"&****&&&&&; XXXXXXXX ;&&&&&&&&&&",
"&****&&&&&&;; XXXX ;;&&&&&&&&&&&",
"&*****&&&&&&&&;;;;****&&&&&&&&&&",
"&&******&&&&&&&&&&******&&&&&&&&",
"&&********&&&&&&&&********&&&&&&",
"&&&*********&&&&&&&*********&&&&",
"&&&&&&********&&&&&&&&********&&"
};
