/* XPM */
static char *_66809a479574354df884e85a8393bd3wfNtjdjqc7feg8Ft[] = {
/* columns rows colors chars-per-pixel */
"32 32 13 1 ",
"  c #313131",
". c #9C5200",
"X c #B47300",
"o c #C57B00",
"O c #E69400",
"+ c #F6B400",
"@ c #FFC531",
"# c #FFFF6A",
"$ c #4A7BDE",
"% c #4A94DE",
"& c #EEC583",
"* c #F6F6B4",
"= c white",
/* pixels */
"$$$$$$$$$$$$%%%$$$$$$$$$$$$$%%%$",
"$$$$$$$$$$$$$$%%$$$$$$$$$$$$$$%%",
"$$$$$$$$$$$$$$$%$$$$$$$$$$$$$$$%",
"%$$$$$$$$$$$$$$$%$$$$$$$$$$$$$$$",
"%$$$$$$$$$$$$$$$%$$$$$$$$$$$$$$$",
"%%$$$$$$$$$$$$$$%%$$$$$$$$$$$$$$",
"$%%$$$$$$$$$$$$$$%%$$$$$$$$$$$$$",
"$%%$$$$$$$$$$$$$$%%$$$$$$$$$$$$$",
"$%%%$$$$$$$$$$$      $$$$$$$$$$$",
"$%%%%$$$$$$$$  .oooXo  $$$$$$$$$",
"$%%%%$$$$$$  .OOO@OOXXo $$$$$$$$",
"$%%%%%$$$$ ..OO@+##+OXXo $$$$$$$",
"$$%%%%%%$ .OO@##=#*O+XXo $$$$$$$",
"$$%%%%%% .OO@#==#*@@OXXXo $$$$$$",
"$$$%%%% oOO@#==#*++@@OXXo %%$$$$",
"$$$$$$% oO@####*OX+@@OXXo %%%%$$",
"$$$$$$ oOO@#***X&&+@+OXXo $$%%%$",
"$$$$$$ oOO#@*+OX..@@+OX.O $$$$%%",
"$$$$$$ oO@+@@@X+.@@@Ooo.O $$$$$%",
"%$$$$$ +O@o+@@@@@@@Ooo.o $$$$$$$",
"%$$$$$ +oOo++O@@@@Oooo.O $$$$$$$",
"%%$$$$ OooOo++@O@+ooOXO $$$$$$$$",
"$%%$$$$ +ooOO+OOoooOXO $$$$$$$$$",
"$%%$$$$ OoOOOOOOOOOOO $$$$$$$$$$",
"$%%%$$$$ O+o+++oooO  $$$$$$$$$$$",
"$%%%%$$$$  OooooO  %%$$$$$$$$$$$",
"$%%%%$$$$$$      %%%%$$$$$$$$$$$",
"$%%%%%$$$$$$$$$$$%%%%%$$$$$$$$$$",
"$$%%%%%%$$$$$$$$$$%%%%%%$$$$$$$$",
"$$%%%%%%%%$$$$$$$$%%%%%%%%$$$$$$",
"$$$%%%%%%%%%$$$$$$$%%%%%%%%%$$$$",
"$$$$$$%%%%%%%%$$$$$$$$%%%%%%%%$$"
};
