/* XPM */
static char *_cda6526cec743b7a262b72d44822fdauPGkFpMOjcPMYZF9[] = {
/* columns rows colors chars-per-pixel */
"32 32 15 1 ",
"  c black",
". c #6A2929",
"X c #39397B",
"o c #7B4141",
"O c #C53939",
"+ c #FF6A4A",
"@ c #BD9C39",
"# c #DE9473",
"$ c #FFDE5A",
"% c #4A7BDE",
"& c #4A94DE",
"* c #73A4C5",
"= c #FFC594",
"- c #B4B4D5",
"; c #EEEEFF",
/* pixels */
"%%%%%%%%%%%%&&&%%%%%%%%%%%%%&&&%",
"%%%%%%%%%%%%%%&&%%%%%%%%%%%%%%&&",
"%%%%%%%%%%%%%%%&%%%%%%%%%%%%%%%&",
"&%%%%%%%%%%%%%%%&%%%%%%%%%%%%%%%",
"&%%%%%%%%%%%%%%%&%%%%%%%%%%%%%%%",
"&&%%%%%%%........&%%%%%%%%%%%%%%",
"%&&%%%%%.O++++++O.&%%%%%%%%%%%%%",
"%&&%%%%%.++++++++O.%%%%%%%%%%%%%",
"%&&&%%%.O++++++++;..%%%%%%%%%%%%",
"%&&&&%%.OO++++++O;.; %%%%%%%%%%%",
"%&&&&%%.OOOOOOOOO-O;  %%%%%%%%%%",
"%&&&&&% .OOOOOOOOO-; X %%%%%%%%%",
"%%&&&&& o..OOOOO---  XX  %%%%%%%",
"%%&&&&& ooo......Xo XXXXX %%%%%%",
"%%%&&&&& o#=o## ##oXXXXXX &&%%%%",
"%%%%%%&&& #=##=o=o   XXX   &&&%%",
"%%%%%%%% @oo####o  XX --   %&&&%",
"%%%%%%%% $$o.XXo     -- -  %%%&&",
"%%%%%%%  o$OXXX==    ---  %%%%%&",
"&%%%%%%  @oO XX##        %%%%%%%",
"&%%%%%; X @ *   o XX  X%%%%%%%%%",
"&&%%%;; XX   XOX XXXXX %%%%%%%%%",
"%&&%%;;; XXXX   XXXXX  %%%%%%%%%",
"%&&%%%;; XXXXXXXX     %%%%%%%%%%",
"%&&&%%%;; XXXXX  XXXX %%%%%%%%%%",
"%&&&&%%%;;; XX XXXXX ;%%%%%%%%%%",
"%&&&&%%%%%;;;  XXX ;&%%%%%%%%%%%",
"%&&&&&%%%%%%%%;   &&&&%%%%%%%%%%",
"%%&&&&&&%%%%%%%;;%&&&&&&%%%%%%%%",
"%%&&&&&&&&%%%%%%%%&&&&&&&&%%%%%%",
"%%%&&&&&&&&&%%%%%%%&&&&&&&&&%%%%",
"%%%%%%&&&&&&&&%%%%%%%%&&&&&&&&%%"
};
