/* XPM */
static char * tilewater2_xpm[] = {
"32 32 2 1",
" 	c #4878D8",
".	c #4890D8",
" .........       .........      ",
"    ........        ........    ",
"          ...             ...   ",
"            ..              ..  ",
"             .               .  ",
"              .               . ",
"              .               . ",
"              ..              ..",
".              ..              .",
".              ..              .",
"..             ...             .",
"...            ....            .",
"...            ....            .",
"....           .....           .",
"......          ......          ",
"........        ........        ",
" .........      .........       ",
"    ........       ........    .",
"          ...            ...   .",
"            ..             ..   ",
"             .              .   ",
"              .              .  ",
"              .              .  ",
"              ..             .. ",
".              .              . ",
".              .              . ",
"..             ..             . ",
"...            ...            . ",
"...            ...            . ",
"....           ....           . ",
"......          .....           ",
"........        .......         "};
